<?xml version="1.0" encoding="UTF-8"?>
<!DOCTYPE svg PUBLIC "-//W3C//DTD SVG 1.1//EN" "http://www.w3.org/Graphics/SVG/1.1/DTD/svg11.dtd">
<!-- Creator: CorelDRAW X6 -->
<svg xmlns="http://www.w3.org/2000/svg" xml:space="preserve" width="2135px" height="309px" version="1.1" style="shape-rendering:geometricPrecision; text-rendering:geometricPrecision; image-rendering:optimizeQuality; fill-rule:evenodd; clip-rule:evenodd"
viewBox="0 0 2021 293"
 xmlns:xlink="http://www.w3.org/1999/xlink">
 <defs>
  <style type="text/css">
   <![CDATA[
    .fil1 {fill:#FAB54D}
    .fil0 {fill:black;fill-rule:nonzero}
    .fil2 {fill:#FAB54D;fill-rule:nonzero}
   ]]>
  </style>
 </defs>
 <g id="Слой_x0020_1">
  <metadata id="CorelCorpID_0Corel-Layer"/>
  <g id="_801614912">
   <polygon class="fil0" points="1923,14 1937,14 1973,87 2007,14 2021,14 1960,143 1946,143 1966,101 "/>
   <path class="fil0" d="M1869 24c-11,0 -21,4 -29,11 -8,7 -12,16 -12,27 0,7 2,14 5,19 3,6 8,10 15,14 7,3 13,5 21,5 7,0 14,-2 20,-5 6,-3 11,-8 15,-14 4,-6 6,-12 6,-19 0,-7 -2,-13 -6,-19 -4,-6 -9,-11 -15,-14 -6,-3 -13,-5 -20,-5zm-53 -9l13 0 0 17c5,-7 11,-12 18,-15 7,-3 14,-5 23,-5 15,0 27,5 38,14 10,10 16,21 16,35 0,14 -5,26 -15,35 -10,10 -23,15 -37,15 -8,0 -16,-2 -23,-5 -7,-3 -13,-8 -19,-14l0 51 -13 0 0 -129z"/>
   <path class="fil0" d="M1778 105c4,0 7,1 9,4 3,2 4,5 4,9 0,3 -1,6 -4,9 -3,2 -6,4 -9,4 -4,0 -7,-1 -9,-4 -3,-2 -4,-5 -4,-9 0,-3 1,-6 4,-9 3,-2 6,-4 9,-4z"/>
   <rect class="fil1" transform="matrix(1.35003E-013 -3.17572 5.09741 8.41075E-014 1764.94 173.661)" width="6" height="50"/>
   <path class="fil0" d="M34 258l-24 0 0 20 -5 0 0 -41 5 0 0 16 24 0 0 -16 5 0 0 41 -5 0 0 -20zm69 -22c6,0 12,2 16,7 4,4 6,9 6,15 0,6 -2,11 -6,15 -4,4 -9,6 -15,6 -6,0 -12,-2 -16,-6 -4,-4 -6,-9 -6,-15 0,-6 2,-11 6,-15 4,-5 9,-7 16,-7zm0 5c-4,0 -8,2 -11,5 -3,3 -5,7 -5,12 0,3 1,6 2,8 1,3 3,5 6,6 2,1 5,2 8,2 3,0 6,-1 8,-2 2,-1 4,-3 6,-6 1,-3 2,-5 2,-8 0,-5 -2,-9 -5,-12 -3,-3 -7,-5 -11,-5zm75 37l-12 0 0 -41 12 0c5,0 8,1 10,3 2,2 3,4 3,7 0,4 -2,7 -6,8 5,2 8,6 8,11 0,8 -5,11 -15,11zm-7 -37l0 13 3 0c3,0 5,0 6,0 1,0 2,-1 3,-2 1,-1 1,-2 1,-4 0,-2 0,-3 -1,-4 -1,-1 -2,-2 -3,-2 -1,0 -3,0 -6,0l-3 0zm0 18l0 14 6 0c3,0 5,0 6,-1 1,0 2,-1 3,-2 1,-1 1,-3 1,-4 0,-2 -1,-4 -2,-5 -1,-1 -3,-2 -6,-2l-8 0zm82 -23c6,0 12,2 16,7 4,4 6,9 6,15 0,6 -2,11 -6,15 -4,4 -9,6 -15,6 -6,0 -12,-2 -16,-6 -4,-4 -6,-9 -6,-15 0,-6 2,-11 6,-15 4,-5 9,-7 16,-7zm0 5c-4,0 -8,2 -11,5 -3,3 -5,7 -5,12 0,3 1,6 2,8 1,3 3,5 6,6 2,1 5,2 8,2 3,0 6,-1 8,-2 2,-1 4,-3 6,-6 1,-3 2,-5 2,-8 0,-5 -2,-9 -5,-12 -3,-3 -7,-5 -11,-5zm103 4l-4 3c-4,-5 -9,-7 -15,-7 -5,0 -9,2 -13,5 -3,3 -5,7 -5,12 0,3 1,6 2,8 2,3 4,5 6,6 3,1 6,2 9,2 6,0 11,-2 15,-7l4 3c-2,3 -5,5 -8,7 -3,2 -7,2 -11,2 -7,0 -12,-2 -16,-6 -4,-4 -6,-9 -6,-15 0,-4 1,-8 3,-11 2,-3 5,-6 8,-8 4,-2 7,-3 12,-3 3,0 5,0 8,1 3,1 5,2 6,3 2,1 3,3 5,5zm37 -9l27 0 0 5 -11 0 0 37 -5 0 0 -37 -11 0 0 -5zm71 0l0 31 30 -31 0 0 0 41 -5 0 0 -30 -30 30 -1 0 0 -41 5 0zm139 0l5 0 0 8c2,-3 5,-5 7,-6 3,-1 6,-2 9,-2 6,0 11,2 15,6 4,4 6,9 6,15 0,6 -2,11 -6,15 -4,4 -9,6 -15,6 -3,0 -6,-1 -9,-2 -3,-1 -5,-3 -7,-6l0 22 -5 0 0 -56zm21 4c-5,0 -8,2 -12,5 -3,3 -5,7 -5,12 0,3 1,6 2,8 1,2 3,4 6,6 3,1 5,2 8,2 3,0 6,-1 8,-2 3,-1 5,-4 6,-6 1,-3 2,-5 2,-8 0,-3 -1,-6 -2,-8 -1,-3 -3,-5 -6,-6 -2,-1 -5,-2 -8,-2zm105 -4l0 41 -5 0 0 -7c-2,3 -5,5 -7,6 -3,1 -6,2 -9,2 -6,0 -11,-2 -15,-6 -4,-4 -6,-9 -6,-15 0,-6 2,-11 6,-15 4,-4 9,-6 15,-6 3,0 6,1 9,2 3,1 5,4 7,6l0 -8 5 0zm-21 4c-3,0 -6,1 -8,2 -2,1 -4,3 -6,6 -1,3 -2,5 -2,8 0,3 1,6 2,8 1,3 3,5 6,6 3,1 5,2 8,2 3,0 6,-1 8,-2 3,-1 5,-3 6,-6 1,-2 2,-5 2,-8 0,-5 -2,-9 -5,-12 -3,-3 -7,-5 -12,-5zm70 -4l0 31 30 -31 0 0 0 41 -5 0 0 -30 -30 30 -1 0 0 -41 5 0zm-1 -17l5 0c1,1 2,2 3,3 1,1 3,1 5,1 2,0 4,0 5,-1 1,-1 2,-2 4,-3l5 0c-1,2 -2,4 -4,6 -2,2 -5,2 -9,2 -4,0 -7,-1 -9,-2 -2,-2 -4,-3 -4,-6zm95 16c6,0 12,2 16,7 4,4 6,9 6,15 0,6 -2,11 -6,15 -4,4 -9,6 -15,6 -6,0 -12,-2 -16,-6 -4,-4 -6,-9 -6,-15 0,-6 2,-11 6,-15 4,-5 9,-7 16,-7zm0 5c-4,0 -8,2 -11,5 -3,3 -5,7 -5,12 0,3 1,6 2,8 1,3 3,5 6,6 2,1 5,2 8,2 3,0 6,-1 8,-2 2,-1 4,-3 6,-6 1,-3 2,-5 2,-8 0,-5 -2,-9 -5,-12 -3,-3 -7,-5 -11,-5zm93 17l-24 0 0 20 -5 0 0 -41 5 0 0 16 24 0 0 -16 5 0 0 41 -5 0 0 -20zm90 -21l0 41 -5 0 0 -7c-2,3 -5,5 -7,6 -3,1 -6,2 -9,2 -6,0 -11,-2 -15,-6 -4,-4 -6,-9 -6,-15 0,-6 2,-11 6,-15 4,-4 9,-6 15,-6 3,0 6,1 9,2 3,1 5,4 7,6l0 -8 5 0zm-21 4c-3,0 -6,1 -8,2 -2,1 -4,3 -6,6 -1,3 -2,5 -2,8 0,3 1,6 2,8 1,3 3,5 6,6 3,1 5,2 8,2 3,0 6,-1 8,-2 3,-1 5,-3 6,-6 1,-2 2,-5 2,-8 0,-5 -2,-9 -5,-12 -3,-3 -7,-5 -12,-5zm135 -4l0 31 30 -31 0 0 0 41 -5 0 0 -30 -30 30 -1 0 0 -41 5 0zm144 5l0 37 -5 0 0 -41 21 0 0 5 -16 0zm74 -6c6,0 12,2 16,7 4,4 6,9 6,15 0,6 -2,11 -6,15 -4,4 -9,6 -15,6 -6,0 -12,-2 -16,-6 -4,-4 -6,-9 -6,-15 0,-6 2,-11 6,-15 4,-5 9,-7 16,-7zm0 5c-4,0 -8,2 -11,5 -3,3 -5,7 -5,12 0,3 1,6 2,8 1,3 3,5 6,6 2,1 5,2 8,2 3,0 6,-1 8,-2 2,-1 4,-3 6,-6 1,-3 2,-5 2,-8 0,-5 -2,-9 -5,-12 -3,-3 -7,-5 -11,-5zm63 -4l5 0 0 8c2,-3 5,-5 7,-6 3,-1 6,-2 9,-2 6,0 11,2 15,6 4,4 6,9 6,15 0,6 -2,11 -6,15 -4,4 -9,6 -15,6 -3,0 -6,-1 -9,-2 -3,-1 -5,-3 -7,-6l0 22 -5 0 0 -56zm21 4c-5,0 -8,2 -12,5 -3,3 -5,7 -5,12 0,3 1,6 2,8 1,2 3,4 6,6 3,1 5,2 8,2 3,0 6,-1 8,-2 3,-1 5,-4 6,-6 1,-3 2,-5 2,-8 0,-3 -1,-6 -2,-8 -1,-3 -3,-5 -6,-6 -2,-1 -5,-2 -8,-2zm83 -5c6,0 12,2 16,7 4,4 6,9 6,15 0,6 -2,11 -6,15 -4,4 -9,6 -15,6 -6,0 -12,-2 -16,-6 -4,-4 -6,-9 -6,-15 0,-6 2,-11 6,-15 4,-5 9,-7 16,-7zm0 5c-4,0 -8,2 -11,5 -3,3 -5,7 -5,12 0,3 1,6 2,8 1,3 3,5 6,6 2,1 5,2 8,2 3,0 6,-1 8,-2 2,-1 4,-3 6,-6 1,-3 2,-5 2,-8 0,-5 -2,-9 -5,-12 -3,-3 -7,-5 -11,-5zm64 33l16 -37 3 0 16 37 5 0 0 10 -5 0 0 -5 -34 0 0 6 -5 0 0 -10 5 0zm17 -28l-12 28 24 0 -12 -28zm102 -8l0 41 -5 0 0 -7c-2,3 -5,5 -7,6 -3,1 -6,2 -9,2 -6,0 -11,-2 -15,-6 -4,-4 -6,-9 -6,-15 0,-6 2,-11 6,-15 4,-4 9,-6 15,-6 3,0 6,1 9,2 3,1 5,4 7,6l0 -8 5 0zm-21 4c-3,0 -6,1 -8,2 -2,1 -4,3 -6,6 -1,3 -2,5 -2,8 0,3 1,6 2,8 1,3 3,5 6,6 3,1 5,2 8,2 3,0 6,-1 8,-2 3,-1 5,-3 6,-6 1,-2 2,-5 2,-8 0,-5 -2,-9 -5,-12 -3,-3 -7,-5 -12,-5z"/>
   <polygon class="fil2" points="118,9 50,161 31,153 99,0 "/>
   <path class="fil0" d="M1739 14l0 160 -20 0 0 -27c-9,10 -18,18 -29,24 -11,5 -22,8 -35,8 -23,0 -42,-8 -58,-25 -16,-16 -24,-36 -24,-60 0,-23 8,-43 24,-59 16,-16 35,-24 58,-24 13,0 25,3 36,8 11,6 20,14 28,25l0 -29 20 0zm-82 16c-11,0 -22,3 -32,8 -10,6 -17,13 -23,24 -6,10 -9,21 -9,32 0,11 3,22 9,32 6,10 13,18 23,24 10,6 20,9 31,9 11,0 22,-3 32,-8 10,-6 18,-13 23,-23 5,-10 8,-20 8,-33 0,-18 -6,-34 -18,-46 -12,-12 -27,-19 -45,-19z"/>
   <polygon class="fil0" points="1429,14 1449,14 1449,81 1523,14 1552,14 1471,87 1558,173 1529,173 1456,100 1449,105 1449,173 1429,173 "/>
   <path class="fil0" d="M1308 100l0 56 22 0c10,0 18,-1 22,-2 4,-1 8,-4 11,-9 3,-4 5,-10 5,-17 0,-9 -3,-16 -8,-21 -6,-5 -13,-8 -22,-8l-31 0zm0 -69l0 50 13 0c12,0 20,-1 24,-1 4,-1 7,-3 11,-7 3,-4 5,-9 5,-15 0,-7 -2,-12 -5,-17 -3,-5 -7,-7 -11,-8 -4,-1 -12,-1 -23,-1l-13 0zm26 142l-46 0 0 -160 46 0c17,0 30,4 38,12 8,8 12,17 12,28 0,16 -7,27 -21,33 21,7 31,22 31,43 0,29 -19,44 -58,44z"/>
   <path class="fil0" d="M1167 30c-17,0 -32,6 -44,19 -12,13 -18,28 -18,46 0,11 3,22 8,32 6,10 13,18 23,23 9,5 20,8 31,8 11,0 22,-3 31,-8 10,-5 17,-13 23,-23 6,-10 8,-21 8,-32 0,-18 -6,-33 -18,-46 -12,-13 -27,-19 -44,-19zm0 -20c25,0 45,9 61,27 15,16 22,35 22,58 0,22 -8,42 -23,58 -16,17 -36,25 -60,25 -25,0 -45,-8 -60,-25 -16,-17 -23,-36 -23,-58 0,-22 7,-41 22,-57 16,-18 37,-27 61,-27z"/>
   <polygon class="fil0" points="1044,173 895,173 895,14 915,14 915,154 1008,154 1008,14 1029,14 1029,154 1064,154 1064,199 1044,199 "/>
   <polygon class="fil0" points="829,96 735,96 735,173 715,173 715,14 735,14 735,77 829,77 829,14 849,14 849,173 829,173 "/>
   <path class="fil0" d="M655 77c-3,-11 -7,-20 -12,-26 -5,-7 -12,-12 -21,-16 -9,-4 -18,-6 -27,-6 -16,0 -29,5 -41,15 -8,7 -15,18 -19,33l120 0zm0 43l17 9c-6,11 -12,20 -20,27 -7,7 -16,12 -25,16 -9,4 -20,5 -32,5 -26,0 -47,-9 -61,-26 -15,-17 -22,-36 -22,-58 0,-20 6,-38 19,-54 16,-20 37,-30 63,-30 27,0 49,10 65,31 12,15 17,33 18,54l-144 0c0,18 6,34 18,45 12,12 26,18 43,18 8,0 16,-1 24,-4 8,-3 14,-7 20,-11 5,-5 11,-12 18,-22z"/>
   <path class="fil0" d="M399 100l0 56 22 0c10,0 18,-1 22,-2 4,-1 8,-4 11,-9 3,-4 5,-10 5,-17 0,-9 -3,-16 -8,-21 -6,-5 -13,-8 -22,-8l-31 0zm0 -69l0 50 13 0c12,0 20,-1 24,-1 4,-1 7,-3 11,-7 3,-4 5,-9 5,-15 0,-7 -2,-12 -5,-17 -3,-5 -7,-7 -11,-8 -4,-1 -12,-1 -23,-1l-13 0zm26 142l-46 0 0 -160 46 0c17,0 30,4 38,12 8,8 12,17 12,28 0,16 -7,27 -21,33 21,7 31,22 31,43 0,29 -19,44 -58,44z"/>
   <path class="fil0" d="M319 77c-3,-11 -7,-20 -12,-26 -5,-7 -12,-12 -21,-16 -9,-4 -18,-6 -27,-6 -16,0 -29,5 -41,15 -8,7 -15,18 -19,33l120 0zm0 43l17 9c-6,11 -12,20 -20,27 -7,7 -16,12 -25,16 -9,4 -20,5 -32,5 -26,0 -47,-9 -61,-26 -15,-17 -22,-36 -22,-58 0,-20 6,-38 19,-54 16,-20 37,-30 63,-30 27,0 49,10 65,31 12,15 17,33 18,54l-144 0c0,18 6,34 18,45 12,12 26,18 43,18 8,0 16,-1 24,-4 8,-3 14,-7 20,-11 5,-5 11,-12 18,-22z"/>
   <polygon class="fil0" points="152,173 131,173 77,57 24,173 2,173 75,14 78,14 "/>
   <path class="fil2" d="M25 165c5,2 8,5 9,10 2,5 2,9 -1,14 -2,5 -5,8 -10,10 -5,2 -9,2 -14,0 -5,-2 -8,-5 -9,-10 -2,-5 -2,-9 0,-14 2,-5 5,-8 10,-10 5,-2 9,-2 14,0z"/>
  </g>
 </g>
</svg>
